<?xml version="1.0" encoding="UTF-8"?>
<svg version="1.1" viewBox="0 0 2000 1992" width="1280" height="1280" xmlns="http://www.w3.org/2000/svg">
<path transform="translate(847,335)" d="m0 0h26l28 3 25 5 24 7 25 10 21 11 22 14 13 10 10 8 13 12 14 14 8 10 11 15 9 15 8 14 7 16 8 25 5 24 2 17v31l-3 25-1 23-3 22-5 20-7 20-13 26-11 18-8 11-14 19-10 11-7 8-13 13-11 9-13 10-17 11-21 12-29 15-16 7-1 27v189l1 25 3 25 4 20 5 14 6 10 7 9 8 8 13 8 15 6 12 3 26 3 2 2v13l-7 2h-343l-22-1-23-3-12-4-11-6-28-11-16-8-13-8-9-7-10-9-11-15-9-19-5-16-4-20v-38l4-30 7-26 7-20 12-25 13-19 14-17 14-15 8-7 13-11 19-14 19-13 18-11 21-10 27-11 30-11 43-14 36-11h3v-139l-3-36-3-17-3-10-7-14-8-10-2-4-4-2-7-6-14-8-16-5-24-4-8-1-2-2-1-6 1-7 2-1h313l1 1v13l-3 2-23 3-20 5-16 8-14 12-10 14-7 15-4 15-3 21-1 13-1 26v68l1 21 39-16 23-10 28-13 22-12 16-10 17-13 12-11 8-10 12-18 6-14 7-21v-13l-3-15-6-19-8-17-9-14-10-13-15-16-10-9-14-11-13-9-19-12-16-9-17-9-19-8-27-9-26-6-19-3-29-2h-11l-25 2-28 5-26 7-20 7-19 9-15 10-11 8-15 14-11 14-11 17-9 20-6 18-4 18-3 20-1 13v73l-1 2-5-1-5-4-7-14-9-27-6-29-2-19v-36l3-24 4-20 5-16 7-18 8-16 8-14 10-14 13-16 17-17 22-18 23-15 21-11 27-11 16-5 26-6 21-3zm-38 589-44 17-29 11-27 10-25 10-21 10-12 8-10 8-10 9-12 17-9 15-7 14-11 28-6 26-3 24v22l4 23 7 21 6 11 9 10 9 4 22 3 13 1h26l34-3 26-3 16-4 14-7 13-10 8-9 9-14 5-13 4-21 3-36v-182z" fill="#07663C"/>
<path transform="translate(1554,720)" d="m0 0h11l4 1v73l-2 232-1 2-14 1-2-1-7-39-6-24-5-13-9-17-8-10-11-11-16-11-17-8-15-5-18-4-23-3-34-2h-10v229l2 26 4 22 6 16 7 12 11 12 10 8 16 8 9 3 22 3 15 1 2 1-1 15-1 1h-323l-1-14 1-1 31-4 14-4 12-5 14-8 10-9 9-14 6-15 4-17 3-26 1-14v-70l-1-54v-56l1-55 1-4-11 4-18 10-13 11-10 9-7 7-9 11-10 13-11 17-12 23-9 21-9 27-5 22-4 26-2 17-1 21v20l2 31 4 31 4 19 6 21 7 20 8 16 9 17 8 11 8 10 9 10 11 11 19 14 14 8 16 7 16 5 12 3 22 3 16 1h14l23-2 25-5 18-6 16-8 14-9 14-12 9-10 9-13 8-14 6-16 5-23 1-24 1-1 16 1 3 2-2 17-6 26-8 24-8 16-7 12-9 12-11 12-11 9-14 10-23 12-19 7-22 6-15 3-26 3h-47l-33-4-23-5-27-8-20-8-20-10-14-9-11-8-11-9-8-7v-2l-4-2-7-8-12-14-12-18-9-16-12-25-7-20-5-19-5-28-2-17-1-21v-24l2-25 5-30 6-25 8-24 11-25 8-16 11-18 10-14 13-14 5-5 13-12 18-13 15-9 26-13 25-10 25-9 22-5 20-3 11-1h45l26 3 22 4 25 7 9 3 5 1 17-1 26-5 21-7 17-8 13-9 10-9 7-7 9-13 8-16 5-15 4-19 4-29z" fill="#0B683E"/>
<path transform="translate(847,335)" d="m0 0h26l28 3 25 5 24 7 25 10 21 11 22 14 13 10 10 8 13 12 14 14 8 10 11 15 9 15 8 14 7 16 8 25 5 24 2 17v31l-3 25-1 23-3 22-5 20-7 20-13 26-11 18-8 11-14 19-10 11-7 8-13 13-11 9-13 10-17 11-21 12-29 15-16 7-1 27h-1l-1-26 1-4-1-96 1-23h1l1 21 39-16 23-10 28-13 22-12 16-10 17-13 12-11 8-10 12-18 6-14 7-21v-13l-3-15-6-19-8-17-9-14-10-13-15-16-10-9-14-11-13-9-19-12-16-9-17-9-19-8-27-9-26-6-19-3-29-2h-11l-25 2-28 5-26 7-20 7-19 9-15 10-11 8-15 14-11 14-11 17-9 20-6 18-4 18-3 20-1 13v73l-1 2-5-1-5-4-7-14-9-27-6-29-2-19v-36l3-24 4-20 5-16 7-18 8-16 8-14 10-14 13-16 17-17 22-18 23-15 21-11 27-11 16-5 26-6 21-3z" fill="#E5621B"/>
<path transform="translate(806,623)" d="m0 0h1l3 12 2 23 1 26v160l-1 79-8 4-39 15-29 11-27 10-25 10-21 10-12 8-10 8-9 8-12 17-9 15-7 14-11 28-6 26-3 24v22l4 23 7 21 6 11 9 10 8 3 22 3 13 1h26l34-3h10v1l-12 1v14l88 1v1h-124l-22-1-23-3-12-4-11-6-28-11-16-8-13-8-9-7-10-9-11-15-9-19-5-16-4-20v-38l4-30 7-26 7-20 12-25 13-19 14-17 14-15 8-7 13-11 19-14 19-13 18-11 21-10 27-11 30-11 43-14 36-11h3v-139l-3-36z" fill="#E5621B"/>
<path transform="translate(1141,551)" d="m0 0h526l2 1 1 3 9 102 5 49v12l-6 2-9 1-3-5-10-28-9-20-8-15-11-15-11-13-8-8-17-13-15-9-17-8-21-7-22-4-30-3-16-1h-110l-1 252h-11l-36-3h-27l-23 2-12 2h-5l-1-104-1-41-2-29-4-24-6-15-9-13-7-7-14-10-16-7-15-4-30-4-1-1v-14z" fill="#0A683E"/>
<path transform="translate(608,274)" d="m0 0h16l14 3 15 7 10 7 5 4 10 13 8 16 3 13 1 15-2 15-7 17-8 11-4 5-11 9-10 6-12 5-11 2h-24l-13-4-12-6-12-9-7-7-7-11-6-14-3-11-1-12 2-16 6-16 6-11 11-12 9-7 16-8 10-3z" fill="#E5621B"/>
<path transform="translate(1115,642)" d="m0 0 1 2 2 1-3 25-4 17-5 14-9 20-11 20-7 11h-2l-2 6-10 12-10 14h-2l-2 5-5 5-7 8-6 5-3 3h-2v2l-8 7-11 8-10 7-11 7-8 5h-3v2l-6 5-33 17-14 6-1 27h-1l-1-26 1-4-1-96 1-23h1l1 21 39-16 23-10 28-13 22-12 16-10 17-13 9-8 4-2 5-5 7-9 2-4h2l2-5 6-8 7-15z" fill="#E5621B"/>
<path transform="translate(604,1283)" d="m0 0h22l7 3 3 5 1 5-3 6v6l5 5 2 1v-19l-3-9v-3h16l4 2-4 6-1 6v13l3 5 7-1 2-3 1-6v-8l-4-12-2-1 1-1h33l7 3 6 5h2l4-5 5-3h12l7 4 6 8 1 3v9l-3 6-5 5-4 3-3 1h-12l-8-6-7-11h-11l1 9 2 3v4h-19l1-6 2-5v-17l-1-2h-4v17l-3 9-4 4-3 1h-11l-6-3-2-2-2 4h-10l-6-5-1 5h-19l-2-4 4-5 2-8v-7l-4-10v-2h-2zm119 6-6 3-2 5v11l4 6 3 2 6-1 5-6v-11l-2-5-3-3zm-31 2-1 1v7l3-1 1-5z" fill="#F29E7B"/>
<path transform="translate(893,1282)" d="m0 0 10 2 6 4 5 10v10l-4 7-6 5-5 2h-10l-8-4-3-3-4 1-4 4-4 1h-41l-2-2h2v-9l-4-2-2 3v6l1 4-21 1h-12l-6-3-6-7-2-6 1-9 5-9 6-4 3-1h15l4 2 1 4v8l-1 3-4-2-4-6-2-1h-7l-4 6-1 8 3 6 4 3h6l7-7h2l2 4 3-5 5-13 5-9 5 1 10 24 4 4 3-1v-16l-3-10v-3h21l7 3 3 7 1 11h2l1-8 6-9 4-3zm-1 7-5 4-2 7 1 9 3 5 4 2 5-1 4-4 2-7-1-9-5-5zm-36 2 2 6 2 1-1-7zm2 14-2 2v6l1 1h6l1-1v-6l-2-2z" fill="#F29E7B"/>
<path transform="translate(1007,379)" d="m0 0 5 2 14 10 14 11 15 14 13 13 8 10 11 15 9 15 8 14 7 16 8 25 5 24 2 17v31l-3 25-1 23-3 22-5 20-7 20-13 26-11 18-8 11-14 19-10 11-7 8-13 13-11 9-13 10-17 11-14 8-2-1 3-1v-2l8-4 11-7 19-13 6-5h2l2-4 3-1v-2l4-1 1-3 8-7 5-6h2l2-4 3-5h2l2-5 9-11 9-12 2-4h2l2-5 11-18 10-21 6-14 6-24 3-25-2-2-9 18-7 10-3 3-3 6-8 9h-2l-2 4-2-1 10-12 12-18 6-14 7-21v-13l-3-15-6-19-8-17-9-14-10-13-15-16-10-9-14-11-13-9-19-12-16-9-17-9-19-8-27-9-26-6-19-3-29-2h-11l-25 2-28 5-26 7-7 1 1-2 17-5 33-8 22-2 26-1 31 3 25 4 23 6 29 10 9 4 25 13 25 15 13 9 20 15v2l4 2 25 25 5 8 1 3h2l9 16 5 11 4 11 3 11 2 2v5h3l4-14v-21l-2-17-3-21-4-15-3-7-6-16-10-19-8-14-6-9v-2h-2l-1-4h-2l-12-16-9-10-9-9-7-6-1-2-5-3-15-12-6-3z" fill="#F29D7A"/>
<path transform="translate(914,1283)" d="m0 0h49l6 5 2 4v6l-3 4v6l2 4 5 1 1-2v-15l-4-11v-2h20l-1 5-2 6v16l4 9v2l-22 1-8-2-2-3-1 4h-19l1-6 3-5-1-14-5 2v10l-3 3-6-3 3 12-1 1h-19l1-4 4-8-2-18-2-5z" fill="#F29D7B"/>
<path transform="translate(507,1133)" d="m0 0h2l4 14 5 12 6 10v2h2l8 11 7 7 11 8 21 12 10 5 15 4 3-1-3-7-4-7-3-6-3-9-4-13-2-21 2-1 4 23 7 21 6 11 9 10 8 3 22 3 13 1h26l34-3h10v1l-12 1v14l88 1v1h-124l-22-1-23-3-12-4-11-6-28-11-16-8-13-8-9-7-10-9-11-15-9-19-4-12z" fill="#F29D7A"/>
<path transform="translate(604,1283)" d="m0 0h22l7 3 3 5 1 5-3 6v6l5 5 3 2 1 5-1 1h-10l-6-5-1 5h-19l-2-4 4-5 2-8v-7l-4-10v-2h-2z" fill="#F29D7B"/>
<path transform="translate(1e3 1283)" d="m0 0h12l8 4 5 7 1 3v10l-3 6-5 5-7 4h-12l-6-4-5-6-2-6v-7l3-7 5-6zm3 7-5 5-1 3v10l4 6 2 2 7-1 4-5 1-2v-9l-3-7-3-2z" fill="#F29E7C"/>
<path transform="translate(584,1283)" d="m0 0h17l3 5 1 11-6-2-5-6h-8l-4 5-1 9 3 7 3 2 5-1-1-4-1-5h18l-1 7-3 6-3 3-7 2h-12l-6-4-5-6-1-4v-9l4-9 7-6z" fill="#F29E7B"/>
<path transform="translate(713,1222)" d="m0 0h10v1l-12 1-1 14-8-1-6 1-50-1-6-1-3-3-3-1 2-4 13-1h16l41-1 3-3z" fill="#E56520"/>
<path transform="translate(739,453)" d="m0 0h5l-3 2-21 11-10 7-11 8-15 14-11 14-11 17-9 20-6 18-4 18-3 20-1 13v73l-1 2-5-1-5-4-3-5 1-2 4 4 5 1 1-15-1-33 2-36 3-19 3-14 3-10 10-26 5-8 4-8 3-4h2l2-5 6-8h2l2-4 6-7 7-6h2l1-3 10-7 19-11z" fill="#F29D7A"/>
<path transform="translate(847,335)" d="m0 0h26l28 3 25 5 24 7 25 10 21 11 11 7-3 1-15-9-16-8-12-5-12-4-7-2-7-3-17-4-20-4-21-2h-39l-27 4-32 8-15 6-13 5-22 11-4 3-7 4-14 9-8 6-2-1 7-6 23-15 21-11 27-11 16-5 26-6 21-3z" fill="#F29D7A"/>
<path transform="translate(755,1283)" d="m0 0h20l-1 7-2 7v13l3 6v5h-19l1-5 2-5 1-13-3-10z" fill="#F29F7D"/>
<path transform="translate(608,274)" d="m0 0h16l14 3 15 7 10 7 5 4 10 13 8 16 3 13 1 15-2 15-7 17-8 11-2 1 10-20 2-5 3-12 1-9v-10l-5-17-7-14-7-9v-2l-4-2-9-8-16-8-11-3-13-1-12 1-10 3-16 7-12 9-2-1 9-8 15-8 13-4z" fill="#F29D7A"/>
<path transform="translate(649,438)" d="m0 0 1 3-2 3h-2l-1 5-2 1-3 7-5 7-3 6-6 13-7 18-2 6-5 18-3 16-2 30v21l1 17 2 13v9h-1l-4-24-1-11v-36l3-24 4-20 5-16 7-18 8-16 8-14z" fill="#F29D7A"/>
<path transform="translate(557,301)" d="m0 0 1 3-4 6-6 12-3 12-1 7v16l3 14 7 15 4 6 5 5v2l4 2 4 3v2l5 2 10 6 15 5 19 1 14-2 11-4 3 1-12 5-11 2h-24l-13-4-12-6-12-9-7-7-7-11-6-14-3-11-1-12 2-16 6-16 6-11z" fill="#F29E7C"/>
<path transform="translate(806,623)" d="m0 0h1l3 12 2 23 1 26v124l-3 2v-139l-3-36z" fill="#FEFEFE"/>
<path transform="translate(1078,693)" d="m0 0v3l-6 6h-2v2l-11 9-22 14-11 6-16 8-20 9-21 9-22 10-16 7-7 2-2-1v-23h1l1 21 39-16 23-10 28-13 22-12 16-10 17-13z" fill="#F29D7A"/>
<path transform="translate(656,985)" d="m0 0 2 1-16 12-10 9-12 17-9 15-7 14-11 28-6 26-3 24-1 21h-1v-31l3-23 5-19 2-3 2-8 5-10 5-12 4-9h2l2-5 6-10 8-12 13-13 15-11z" fill="#F29D7B"/>
<path transform="translate(711,538)" d="m0 0h313l1 1v13l-2 1v-13h-311l-1 1v8l1 4 2 1-4-1-2-7 1-7z" fill="#FEFEFE"/>
<path transform="translate(533,973)" d="m0 0 1 3-5 10-7 15-9 27-4 19-2 12-2 20v27l3 24-2 3-4-20v-38l4-30 7-26 7-20 12-25z" fill="#F29E7B"/>
<path transform="translate(1141,551)" d="m0 0h276v1l-271 1-3 1-2 12h-1v-14z" fill="#FEFEFE"/>
<path transform="translate(662,861)" d="m0 0 3 1-13 7-11 6-9 6-10 7-18 13-13 11-6 4-10 9-3 3h-2l-2 4-11 11v-3l16-17 8-7 13-11 19-14 19-13 18-11z" fill="#F29D7A"/>
<path transform="translate(702,1236)" d="m0 0 9 2 88 1v1h-124l-21-1v-2h45z" fill="#F7CCBA"/>
<path transform="translate(637,615)" d="m0 0h1l1 73-1 2-5-1-5-4-3-5 1-2 4 4 5 1 1-15-1-33 1-19z" fill="#F29D7A"/>
<path transform="translate(811,809)" d="m0 0v3l-6 2-16 4-28 9-36 12-13 5-3-1 3-2 20-7 36-12 39-12z" fill="#F29D7A"/>
<path transform="translate(607,541)" d="m0 0h1l-1 30v21l1 17 2 13v9h-1l-4-24-1-11v-36l2-18z" fill="#F29F7C"/>
<path transform="translate(849,430)" d="m0 0h7l2 1v2h-15l-25 2-28 5-26 7-7 1 1-2 17-5 33-8 22-2z" fill="#F29F7D"/>
<path transform="translate(950,1286)" d="m0 0h4v14h3l2 1v3h-5v6h-2v2l-3-1-3-18 1-6z" fill="#E5621B"/>
<path transform="translate(593,1075)" d="m0 0 1 3-6 24-4 29-1 21h-1v-31l3-23 5-19z" fill="#F29D7A"/>
<path transform="translate(807,923)" d="m0 0 4 1-28 11-39 15-17 6-2-1 9-4 22-8 9-4 22-8z" fill="#F3A787"/>
<path transform="translate(533,973)" d="m0 0 1 3-5 10-7 15-9 27-3 13h-2l1-8 8-26 8-19z" fill="#F29D7A"/>
<path transform="translate(688,350)" d="m0 0 2 2-2 15-7 17-8 11-2 1 10-20 2-5 3-12 1-8z" fill="#F29E7C"/>
<path transform="translate(692,394)" d="m0 0h2v2l-11 9-8 8-6 5-1 2h-2v2l-5 5-8 9v-3l9-11 17-17 11-9z" fill="#F29D7A"/>
<path transform="translate(849,1289)" d="m0 0 4 1 1 3v15l-5-2-1-4-1-10z" fill="#E5621B"/>
<path transform="translate(638,671)" d="m0 0h1v17l-1 2-5-1-5-4-3-5 1-2 4 4 5 1 1-7z" fill="#F4AE91"/>
<path transform="translate(686,1287)" d="m0 0 2 2 1 15-1 2-4-2-1-6-2-5-1-5 4 1z" fill="#E5621B"/>
<path transform="translate(944,767)" d="m0 0m-22-13h1l1 21 17-7h3v2l-14 7-6 1-2-1z" fill="#F5BAA1"/>
<path transform="translate(612,1292)" d="m0 0 2 1 1 4h2v-5l3 1 1 7-1 4 1 3-2 3h-2l-3-10v-2l-2-1z" fill="#E5621B"/>
<path transform="translate(705,1223)" d="m0 0h4l-1 3-3 1h-26l1-2z" fill="#F2A483"/>
<path transform="translate(822,1293)" d="m0 0 3 1 1 4 3 2 2 4-4 2-3-1-3-7z" fill="#E5621B"/>
<path transform="translate(604,1049)" d="m0 0 1 2-10 25-2-1 1-7 5-10 3-7z" fill="#F2A281"/>
<path transform="translate(868,1296)" d="m0 0 2 1v8h2v7l-2 2-3-3-1-7 1-1z" fill="#E5621B"/>
<path transform="translate(849,430)" d="m0 0h7l2 1v2h-30l2-2z" fill="#F2A484"/>
<path transform="translate(1032,726)" d="m0 0m-2 1 2 1-4 4-11 6-3-1 9-6z" fill="#F29F7C"/>
<path transform="translate(557,301)" d="m0 0 1 3-4 6-6 12-2 1 1-5 7-13z" fill="#F29D7A"/>
<path transform="translate(639,595)" d="m0 0h1l-1 20-3-1 1-15z" fill="#F29F7D"/>
<path transform="translate(1478,1222)" d="m0 0h6l-4 2-2 19h-1v-20z" fill="#FEFEFE"/>
<path transform="translate(612,1033)" d="m0 0 1 2-7 14h-2l1-5 3-7h2z" fill="#F29D7A"/>
<path transform="translate(508,1041)" d="m0 0h1l-2 18-3 1 2-15z" fill="#F2A281"/>
<path transform="translate(811,809)" d="m0 0v3l-6 2-8 1 3-3z" fill="#F2A281"/>
<path transform="translate(765,939)" d="m0 0m-3 1h3v2l-16 6 1-3z" fill="#F2A282"/>
<path transform="translate(908,1295)" d="m0 0h2l1 2-1 10-2 1z" fill="#E5621B"/>
<path transform="translate(962,1305)" d="m0 0 1 4h2v2h3v4l-5-2-2-6z" fill="#E5621B"/>
<path transform="translate(597,1065)" d="m0 0 1 3-3 8-2-1 1-7z" fill="#F3A889"/>
</svg>
