<?xml version="1.0" standalone="no"?>
<!DOCTYPE svg PUBLIC "-//W3C//DTD SVG 20010904//EN"
 "http://www.w3.org/TR/2001/REC-SVG-20010904/DTD/svg10.dtd">
<svg version="1.0" xmlns="http://www.w3.org/2000/svg"
 width="700.000000pt" height="700.000000pt" viewBox="0 0 700.000000 700.000000"
 preserveAspectRatio="xMidYMid meet">
<metadata>
Created by potrace 1.14, written by Peter Selinger 2001-2017
</metadata>
<g transform="translate(0.000000,700.000000) scale(0.100000,-0.100000)"
fill="#000000" stroke="none">
<path d="M2063 6014 c-66 -24 -129 -86 -152 -150 -29 -77 -27 -136 7 -209 47
-98 130 -148 241 -146 185 4 306 188 235 358 -51 125 -206 193 -331 147z"/>
<path d="M2925 5813 c-265 -35 -494 -157 -643 -343 -53 -66 -126 -212 -147
-295 -23 -87 -30 -249 -16 -340 22 -132 74 -265 105 -265 11 0 15 39 19 188 6
207 15 253 71 367 83 166 212 259 428 309 191 45 335 42 514 -10 232 -67 475
-235 573 -398 37 -61 72 -179 66 -223 -12 -95 -82 -206 -180 -286 -61 -49
-258 -152 -395 -205 -67 -27 -76 -28 -82 -13 -4 9 -6 117 -4 241 3 196 6 233
25 291 37 117 122 187 246 204 81 11 87 14 83 43 l-3 27 -550 0 -550 0 -3 -27
c-2 -16 -2 -28 0 -28 179 -20 273 -78 323 -200 17 -40 19 -82 23 -370 l4 -325
-114 -35 c-145 -44 -347 -119 -418 -155 -140 -71 -302 -200 -379 -302 -163
-215 -214 -521 -122 -729 24 -53 92 -128 145 -159 87 -51 252 -116 316 -124
47 -7 1214 -8 1318 -2 9 1 12 11 10 29 -3 25 -7 28 -63 34 -166 21 -250 102
-281 273 -10 54 -15 905 -6 921 4 7 52 37 107 65 55 28 132 74 171 101 170
116 326 325 384 513 27 88 49 357 37 465 -36 334 -326 642 -692 735 -91 23
-251 37 -320 28z m-87 -2410 c-1 -356 -11 -470 -42 -531 -37 -71 -112 -133
-180 -149 -53 -12 -313 -25 -381 -18 -112 10 -148 50 -179 195 -38 174 48 446
181 577 62 61 121 90 343 173 91 34 185 70 210 80 25 11 46 19 47 20 2 0 2
-156 1 -347z"/>
<path d="M3990 5030 c0 -17 5 -30 13 -30 167 -5 309 -99 332 -218 16 -86 24
-264 25 -557 l0 -120 200 0 200 0 0 105 c1 58 2 254 2 435 1 182 5 332 9 335
11 7 390 4 481 -4 156 -14 279 -64 377 -153 76 -68 122 -139 171 -260 34 -87
41 -98 61 -95 27 3 40 20 34 42 -2 8 -7 44 -10 80 -7 98 -17 202 -21 230 -1
14 -6 68 -10 120 -3 52 -10 100 -15 106 -5 7 -300 11 -929 12 l-920 3 0 -31z"/>
<path d="M5439 4465 c-2 0 -9 -43 -14 -80 -29 -216 -151 -346 -368 -391 -79
-17 -117 -15 -224 15 -174 48 -406 45 -568 -8 -46 -15 -80 -30 -182 -77 -257
-118 -401 -325 -478 -689 -4 -16 -8 -95 -10 -175 -5 -246 47 -430 171 -605
110 -157 265 -259 477 -314 194 -51 438 -46 592 11 161 60 253 134 319 258 36
69 81 215 81 265 0 27 -4 30 -32 33 -30 3 -33 1 -34 -25 -3 -104 -29 -185 -84
-264 -98 -141 -262 -212 -480 -208 -198 4 -346 69 -463 203 -144 166 -213 400
-206 700 2 99 10 165 35 273 22 100 90 250 153 338 57 79 143 160 205 193 l57
31 1 -442 c1 -435 -3 -517 -32 -607 -35 -105 -126 -168 -268 -186 -61 -8 -67
-11 -65 -37 l2 -24 568 0 568 0 0 29 c0 15 -3 28 -7 29 -5 1 -19 2 -33 4 -90
10 -114 16 -161 41 -91 50 -140 134 -153 265 -4 36 -7 247 -7 468 -1 411 0
426 35 416 6 -2 50 -6 97 -10 47 -3 100 -10 118 -15 17 -5 31 -7 31 -5 0 9
124 -46 163 -74 91 -62 149 -184 172 -358 4 -29 12 -54 18 -54 21 -2 42 3 47
12 3 5 7 247 9 539 l2 530 -25 -2 c-14 -1 -26 -3 -27 -3z"/>
<path d="M2021 2481 c-33 -26 -33 -90 2 -112 5 -4 79 -7 163 -7 l153 1 10 28
c5 16 8 38 6 49 -2 11 0 22 6 25 5 4 9 0 10 -7 1 -14 -2 -66 -4 -82 -1 -5 12
-11 30 -13 31 -3 32 -1 26 27 -5 25 -2 30 14 30 11 0 29 -13 41 -30 36 -48
100 -38 120 20 9 26 8 34 -12 57 -25 29 -81 37 -96 14 -6 -11 -12 -11 -31 0
-13 7 -52 13 -86 14 -57 2 -61 1 -53 -16 15 -27 12 -86 -4 -92 -27 -11 -40 36
-25 92 3 9 -7 15 -28 17 -31 2 -33 1 -27 -23 12 -45 8 -87 -6 -78 -6 4 -8 21
-5 38 8 46 -6 59 -65 65 -50 5 -52 4 -41 -16 6 -11 11 -30 11 -41 0 -17 -6
-21 -30 -21 -20 0 -30 -5 -30 -15 0 -15 -29 -22 -31 -7 -7 40 -4 54 13 63 15
8 24 7 38 -6 11 -10 20 -12 24 -7 7 11 -2 41 -13 43 -39 6 -62 3 -80 -10z
m406 -33 c-3 -8 -6 -5 -6 6 -1 11 2 17 5 13 3 -3 4 -12 1 -19z m131 5 c19 -36
-2 -79 -31 -67 -35 13 -32 84 3 84 11 0 23 -8 28 -17z"/>
<path d="M2651 2472 c6 -15 8 -45 5 -67 -6 -40 -5 -41 25 -43 31 -2 31 -1 25
30 l-6 33 20 -32 c19 -32 22 -33 85 -33 47 0 65 4 64 13 -3 26 1 38 12 31 6
-3 9 -14 6 -24 -4 -15 4 -17 72 -16 42 1 83 5 91 9 8 4 33 1 55 -7 34 -12 42
-12 61 1 49 32 36 113 -21 127 -34 9 -59 -6 -78 -46 l-17 -33 0 33 c0 24 -6
35 -22 41 -29 10 -83 7 -81 -5 9 -55 10 -73 2 -85 -6 -10 -15 1 -31 38 -13 29
-28 53 -35 53 -6 0 -19 -20 -28 -44 -11 -28 -22 -43 -30 -40 -7 3 -16 1 -20
-5 -9 -16 -45 -13 -51 4 -9 22 4 65 20 65 7 0 19 -7 26 -15 15 -18 30 -11 30
16 0 20 -4 22 -45 22 -47 0 -53 -3 -69 -35 l-17 -33 6 35 c6 35 6 36 -29 37
-33 1 -34 0 -25 -25z m507 -44 c3 -30 -1 -37 -19 -43 -25 -8 -39 8 -39 46 0
32 8 41 35 37 15 -2 21 -12 23 -40z m-134 -23 c4 -10 -1 -15 -14 -15 -13 0
-18 5 -14 15 4 8 10 15 14 15 4 0 10 -7 14 -15z"/>
<path d="M3205 2429 l0 -67 32 0 c24 0 30 4 26 15 -3 8 0 19 8 24 8 4 15 13
15 19 1 5 2 15 3 21 0 5 5 8 10 5 4 -3 6 -23 4 -44 l-4 -39 126 -1 c116 0 127
1 145 21 43 46 7 118 -55 110 -37 -4 -42 -4 -80 -1 -22 2 -29 -1 -27 -11 11
-50 10 -92 -1 -88 -7 2 -12 20 -12 40 0 54 -14 62 -108 62 l-82 0 0 -66z m344
23 c12 -22 -7 -67 -28 -67 -21 0 -35 29 -27 58 8 32 40 37 55 9z"/>
</g>
</svg>
